<svg xmlns="http://www.w3.org/2000/svg" xmlns:xlink="http://www.w3.org/1999/xlink" width="500"
    zoomAndPan="magnify" viewBox="0 0 375 374.999991" height="500"
    preserveAspectRatio="xMidYMid meet" version="1.0">
    <defs>
        <clipPath id="b966005fda">
            <path d="M 50.421875 117 L 147 117 L 147 258 L 50.421875 258 Z M 50.421875 117 "
                clip-rule="nonzero" />
        </clipPath>
        <clipPath id="aa1150d629">
            <path d="M 228 117 L 324.921875 117 L 324.921875 258 L 228 258 Z M 228 117 "
                clip-rule="nonzero" />
        </clipPath>
        <clipPath id="be10c964c2">
            <path d="M 139 81.078125 L 234 81.078125 L 234 294 L 139 294 Z M 139 81.078125 "
                clip-rule="nonzero" />
        </clipPath>
    </defs>
    <path fill="#03fa6e"
        d="M 136.914062 254.609375 C 135.398438 254.609375 133.90625 254.097656 132.714844 253.152344 L 56.042969 192.828125 C 54.394531 191.53125 53.449219 189.589844 53.449219 187.496094 C 53.449219 185.402344 54.394531 183.457031 56.039062 182.152344 L 132.714844 121.839844 C 133.90625 120.890625 135.398438 120.382812 136.914062 120.382812 C 139.007812 120.382812 140.960938 121.320312 142.246094 122.972656 C 143.367188 124.394531 143.875 126.179688 143.65625 127.96875 C 143.449219 129.773438 142.535156 131.382812 141.113281 132.503906 L 71.234375 187.496094 L 141.113281 242.472656 C 142.535156 243.609375 143.449219 245.214844 143.65625 247.007812 C 143.875 248.8125 143.367188 250.582031 142.246094 252.015625 C 140.960938 253.660156 139.007812 254.609375 136.914062 254.609375 "
        fill-opacity="1" fill-rule="nonzero" />
    <g clip-path="url(#b966005fda)">
        <path fill="#2a446b"
            d="M 136.914062 117.492188 C 134.75 117.492188 132.632812 118.21875 130.933594 119.5625 L 54.253906 179.882812 C 51.898438 181.746094 50.558594 184.511719 50.558594 187.496094 C 50.558594 190.480469 51.910156 193.253906 54.253906 195.105469 L 130.933594 255.429688 C 132.621094 256.757812 134.75 257.5 136.914062 257.5 C 139.910156 257.5 142.683594 256.144531 144.523438 253.796875 C 146.132812 251.773438 146.835938 249.242188 146.535156 246.671875 C 146.222656 244.105469 144.941406 241.804688 142.90625 240.207031 L 75.90625 187.496094 L 142.90625 134.785156 C 144.941406 133.175781 146.222656 130.886719 146.535156 128.316406 C 146.835938 125.75 146.132812 123.214844 144.523438 121.179688 C 142.683594 118.832031 139.898438 117.492188 136.914062 117.492188 Z M 136.914062 123.273438 C 138.070312 123.273438 139.214844 123.785156 139.976562 124.753906 C 141.320312 126.457031 141.019531 128.90625 139.332031 130.238281 L 66.550781 187.496094 L 139.332031 244.753906 C 141.019531 246.082031 141.320312 248.535156 139.976562 250.222656 C 139.214844 251.207031 138.070312 251.714844 136.914062 251.714844 C 136.066406 251.714844 135.222656 251.449219 134.507812 250.882812 L 57.828125 190.5625 C 56.890625 189.820312 56.339844 188.6875 56.339844 187.496094 C 56.339844 186.292969 56.890625 185.171875 57.828125 184.429688 L 134.507812 124.105469 C 135.210938 123.539062 136.066406 123.273438 136.914062 123.273438 "
            fill-opacity="1" fill-rule="nonzero" />
    </g>
    <path fill="#03fa6e"
        d="M 238.078125 254.609375 C 235.984375 254.609375 234.042969 253.660156 232.734375 252.015625 C 230.421875 249.078125 230.929688 244.800781 233.878906 242.472656 L 303.769531 187.496094 L 233.878906 132.503906 C 230.929688 130.191406 230.421875 125.910156 232.734375 122.972656 C 234.042969 121.320312 235.984375 120.382812 238.078125 120.382812 C 239.59375 120.382812 241.085938 120.890625 242.277344 121.839844 L 318.957031 182.152344 C 320.597656 183.457031 321.535156 185.402344 321.535156 187.496094 C 321.535156 189.589844 320.597656 191.53125 318.945312 192.828125 L 242.277344 253.152344 C 241.085938 254.097656 239.59375 254.609375 238.078125 254.609375 "
        fill-opacity="1" fill-rule="nonzero" />
    <g clip-path="url(#aa1150d629)">
        <path fill="#2a446b"
            d="M 238.078125 117.492188 C 235.09375 117.492188 232.320312 118.832031 230.46875 121.179688 C 227.160156 125.378906 227.886719 131.476562 232.085938 134.785156 L 299.085938 187.496094 L 232.085938 240.207031 C 227.886719 243.503906 227.160156 249.609375 230.46875 253.796875 C 232.320312 256.144531 235.09375 257.5 238.078125 257.5 C 240.242188 257.5 242.359375 256.757812 244.058594 255.429688 L 320.738281 195.105469 C 323.085938 193.253906 324.429688 190.480469 324.429688 187.496094 C 324.429688 184.511719 323.085938 181.746094 320.75 179.882812 L 244.070312 119.5625 C 242.371094 118.21875 240.242188 117.492188 238.078125 117.492188 Z M 238.078125 123.273438 C 238.921875 123.273438 239.78125 123.539062 240.484375 124.105469 L 317.164062 184.429688 C 318.101562 185.171875 318.644531 186.292969 318.644531 187.496094 C 318.644531 188.6875 318.101562 189.820312 317.164062 190.5625 L 240.484375 250.882812 C 239.78125 251.449219 238.921875 251.714844 238.078125 251.714844 C 236.921875 251.714844 235.777344 251.207031 235.015625 250.222656 C 233.683594 248.535156 233.972656 246.082031 235.660156 244.753906 L 308.441406 187.496094 L 235.660156 130.238281 C 233.972656 128.90625 233.683594 126.457031 235.015625 124.753906 C 235.777344 123.785156 236.933594 123.273438 238.078125 123.273438 "
            fill-opacity="1" fill-rule="nonzero" />
    </g>
    <path fill="#03fa6e"
        d="M 149.394531 291.011719 C 148.550781 291.011719 147.726562 290.847656 146.941406 290.546875 C 145.253906 289.886719 143.910156 288.617188 143.183594 286.960938 C 142.441406 285.296875 142.40625 283.457031 143.054688 281.769531 L 217.941406 88.320312 C 218.945312 85.726562 221.492188 83.980469 224.269531 83.980469 C 225.113281 83.980469 225.945312 84.144531 226.730469 84.445312 C 230.214844 85.796875 231.960938 89.742188 230.605469 93.234375 L 155.730469 286.671875 C 154.726562 289.261719 152.167969 291.011719 149.394531 291.011719 "
        fill-opacity="1" fill-rule="nonzero" />
    <g clip-path="url(#be10c964c2)">
        <path fill="#2a446b"
            d="M 224.269531 81.089844 C 220.300781 81.089844 216.667969 83.585938 215.246094 87.277344 L 140.359375 280.714844 C 139.433594 283.132812 139.492188 285.757812 140.53125 288.128906 C 141.585938 290.488281 143.484375 292.316406 145.898438 293.242188 C 147.023438 293.683594 148.191406 293.902344 149.394531 293.902344 C 153.359375 293.902344 156.992188 291.414062 158.425781 287.714844 L 233.300781 94.277344 C 235.234375 89.289062 232.746094 83.667969 227.761719 81.75 C 226.652344 81.308594 225.472656 81.089844 224.269531 81.089844 Z M 224.269531 86.871094 C 224.742188 86.871094 225.214844 86.964844 225.679688 87.136719 C 227.691406 87.914062 228.6875 90.167969 227.910156 92.183594 L 153.027344 285.621094 C 152.4375 287.167969 150.957031 288.117188 149.394531 288.117188 C 148.917969 288.117188 148.445312 288.039062 147.980469 287.851562 C 145.96875 287.078125 144.976562 284.808594 145.761719 282.808594 L 220.636719 89.371094 C 221.238281 87.820312 222.707031 86.871094 224.269531 86.871094 "
            fill-opacity="1" fill-rule="nonzero" />
    </g>
</svg>